<?xml version="1.0" encoding="iso-8859-1"?>
<!-- Generator: Adobe Illustrator 19.0.0, SVG Export Plug-In . SVG Version: 6.00 Build 0)  -->
<svg version="1.1" id="Capa_1" xmlns="http://www.w3.org/2000/svg" xmlns:xlink="http://www.w3.org/1999/xlink" x="0px" y="0px"
	 viewBox="0 0 512 512" fill="white" xml:space="preserve">
<g>
	<g>
		<path d="M68.677,472.334C76.024,495.325,97.336,512,122.428,512h267.143c25.091,0,46.403-16.675,53.75-39.666H68.677z"/>
	</g>
</g>
<g>
	<g>
		<path d="M429.521,82.265l-65.712-65.712c-2.71-2.711-5.641-5.101-8.762-7.181v81.295c0,1.85,1.51,3.351,3.361,3.351h80.145
			C436.113,89.766,433.082,85.826,429.521,82.265z"/>
	</g>
</g>
<g>
	<g>
		<path d="M446.064,124.023h-87.656c-18.403,0-33.366-14.963-33.366-33.356V0.02C324.652,0,324.252,0,323.862,0H122.425
			c-31.146,0-56.49,25.345-56.49,56.5v154.098h380.13L446.064,124.023L446.064,124.023z"/>
	</g>
</g>
<g>
	<g>
		<path d="M256.315,305.656c-9.149,0-13.721,5.141-13.721,15.417v40.854c0,10.278,4.572,15.417,13.721,15.417
			c9.25,0,13.875-5.138,13.875-15.417v-40.854C270.189,310.797,265.564,305.656,256.315,305.656z"/>
	</g>
</g>
<g>
	<g>
		<path d="M448.017,240.605H63.982c-20.901,0-37.905,17.004-37.905,37.905v125.912c0,20.901,17.004,37.905,37.905,37.905h384.034
			c20.901,0,37.906-17.004,37.906-37.905V278.51C485.922,257.609,468.918,240.605,448.017,240.605z M204.516,361.001
			c0,12.54-3.445,21.737-10.329,27.595c-6.887,5.858-16.086,8.788-27.595,8.788h-27.287c-3.084,0-5.603-0.718-7.554-2.158
			c-1.953-1.438-2.93-3.134-2.93-5.088v-98.203c0-1.951,0.976-3.647,2.93-5.087c1.951-1.438,4.471-2.158,7.554-2.158h27.287
			c11.509,0,20.709,2.93,27.595,8.788c6.884,5.858,10.329,15.058,10.329,27.595V361.001z M294.24,361.926
			c0,12.54-3.445,21.737-10.329,27.595c-6.886,5.858-16.086,8.788-27.595,8.788c-11.408,0-20.557-2.93-27.441-8.788
			c-6.887-5.858-10.329-15.055-10.329-27.595v-40.854c0-12.538,3.442-21.737,10.329-27.595c6.884-5.858,16.033-8.788,27.441-8.788
			c11.509,0,20.709,2.93,27.595,8.788c6.884,5.858,10.329,15.058,10.329,27.595V361.926z M346.5,377.343
			c2.877,0,5.266-0.462,7.168-1.387c1.9-0.925,3.262-2.336,4.085-4.24c0.821-1.9,1.361-3.469,1.619-4.702
			c0.255-1.233,0.486-2.93,0.693-5.087c0.41-4.83,4.368-7.246,11.871-7.246c4.418,0,7.554,0.797,9.404,2.389
			c1.85,1.594,2.774,4.601,2.774,9.019c0,9.97-3.623,17.832-10.869,23.587c-7.245,5.757-16.522,8.634-27.826,8.634
			c-10.999,0-19.914-2.93-26.748-8.788c-6.836-5.858-10.252-15.055-10.252-27.595v-40.854c0-12.538,3.416-21.737,10.252-27.595
			c6.834-5.858,15.749-8.788,26.748-8.788c11.304,0,20.581,2.725,27.826,8.171c7.246,5.449,10.869,12.95,10.869,22.508
			c0,4.42-0.925,7.426-2.774,9.019c-1.85,1.594-4.933,2.389-9.25,2.389c-7.708,0-11.716-2.413-12.025-7.246
			c-0.308-9.25-4.882-13.875-13.721-13.875c-9.25,0-13.875,5.141-13.875,15.417v40.854
			C332.471,372.204,337.146,377.343,346.5,377.343z"/>
	</g>
</g>
<g>
	<g>
		<path d="M166.592,305.656h-13.721v70.762h13.721c9.25,0,13.875-5.138,13.875-15.417v-39.928
			C180.467,310.797,175.842,305.656,166.592,305.656z"/>
	</g>
</g>
<g>
</g>
<g>
</g>
<g>
</g>
<g>
</g>
<g>
</g>
<g>
</g>
<g>
</g>
<g>
</g>
<g>
</g>
<g>
</g>
<g>
</g>
<g>
</g>
<g>
</g>
<g>
</g>
<g>
</g>
</svg>
