<?xml version="1.0" encoding="UTF-8"?>
<svg version="1.1" xmlns="http://www.w3.org/2000/svg" width="40" height="42">
<path d="M0 0 C1.98 0 3.96 0 6 0 C6 5.61 6 11.22 6 17 C10.19185922 14.04320395 10.19185922 14.04320395 14.37646484 11.07617188 C18.77777778 8 18.77777778 8 21 8 C21.66 9.65 22.32 11.3 23 13 C15.08 16.96 15.08 16.96 7 21 C12.28 23.97 17.56 26.94 23 30 C22.34 31.65 21.68 33.3 21 35 C15.36901124 31.99935973 10.11915459 28.81213639 5 25 C5.495 33.415 5.495 33.415 6 42 C4.35 42 2.7 42 1 42 C1 36.39 1 30.78 1 25 C0.01257813 25.721875 -0.97484375 26.44375 -1.9921875 27.1875 C-3.28627903 28.12524749 -4.58055969 29.06273402 -5.875 30 C-6.52597656 30.47695313 -7.17695313 30.95390625 -7.84765625 31.4453125 C-12.7734375 35 -12.7734375 35 -15 35 C-15.66 33.35 -16.32 31.7 -17 30 C-11.72 27.03 -6.44 24.06 -1 21 C-6.28 18.36 -11.56 15.72 -17 13 C-16.34 11.35 -15.68 9.7 -15 8 C-10.73970809 8.57999024 -7.64838465 11.12387893 -4.25 13.5625 C-3.34701172 14.19961914 -3.34701172 14.19961914 -2.42578125 14.84960938 C-0.94670286 15.89435522 0.52717259 16.94646016 2 18 C1.67 17.34 1.34 16.68 1 16 C0.7677354 13.28737884 0.58063765 10.59226874 0.4375 7.875 C0.39431641 7.12089844 0.35113281 6.36679688 0.30664062 5.58984375 C0.2005168 3.72678112 0.09974999 1.86341476 0 0 Z " fill="#232426" transform="translate(17,0)"/>
</svg>
